<svg id="레이어_1" data-name="레이어 1" xmlns="http://www.w3.org/2000/svg" xmlns:xlink="http://www.w3.org/1999/xlink" viewBox="0 0 155.57 78.87"><defs><style>.cls-1{fill:none;}.cls-2{fill:#eda000;}.cls-3{clip-path:url(#clip-path);}.cls-4{fill:url(#무제_그라디언트_33);}</style><clipPath id="clip-path" transform="translate(0 -1.04)"><path class="cls-1" d="M0,0V78.87l155.57,1V1ZM116.13,79.79A39.38,39.38,0,1,1,155.5,40.41,39.37,39.37,0,0,1,116.13,79.79Z"/></clipPath><linearGradient id="무제_그라디언트_33" y1="39.44" x2="87.39" y2="39.44" gradientUnits="userSpaceOnUse"><stop offset="0" stop-color="#eda000" stop-opacity="0.2"/><stop offset="0.07" stop-color="#eda000" stop-opacity="0.33"/><stop offset="0.15" stop-color="#eda000" stop-opacity="0.47"/><stop offset="0.25" stop-color="#eda000" stop-opacity="0.59"/><stop offset="0.35" stop-color="#eda000" stop-opacity="0.68"/><stop offset="0.46" stop-color="#eda000" stop-opacity="0.75"/><stop offset="0.59" stop-color="#eda000" stop-opacity="0.79"/><stop offset="0.77" stop-color="#eda000" stop-opacity="0.8"/></linearGradient></defs><path class="cls-2" d="M116.13,6A34.44,34.44,0,1,1,81.7,40.47,34.47,34.47,0,0,1,116.13,6m0-5a39.44,39.44,0,1,0,39.44,39.43A39.43,39.43,0,0,0,116.13,1Z" transform="translate(0 -1.04)"/><g class="cls-3"><polygon class="cls-4" points="0 42.91 116.13 78.75 116.13 0.12 0 42.91 0 42.91"/></g></svg>